solid OpenSCAD_Model
  facet normal 0.900969 0.433884 0
    outer loop
      vertex 2 0 48
      vertex 1.24698 1.56366 -48
      vertex 1.24698 1.56366 48
    endloop
  endfacet
  facet normal 0.900969 0.433884 0
    outer loop
      vertex 1.24698 1.56366 -48
      vertex 2 0 48
      vertex 2 0 -48
    endloop
  endfacet
  facet normal -1 0 0
    outer loop
      vertex -1.80194 -0.867767 -48
      vertex -1.80194 0.867767 48
      vertex -1.80194 0.867767 -48
    endloop
  endfacet
  facet normal -1 -0 0
    outer loop
      vertex -1.80194 0.867767 48
      vertex -1.80194 -0.867767 -48
      vertex -1.80194 -0.867767 48
    endloop
  endfacet
  facet normal 0.222525 0.974927 -0
    outer loop
      vertex 1.24698 1.56366 -48
      vertex -0.445042 1.94986 48
      vertex 1.24698 1.56366 48
    endloop
  endfacet
  facet normal 0.222525 0.974927 0
    outer loop
      vertex -0.445042 1.94986 48
      vertex 1.24698 1.56366 -48
      vertex -0.445042 1.94986 -48
    endloop
  endfacet
  facet normal -0 0 1
    outer loop
      vertex 1.06823 1.13148 48
      vertex 2 0 48
      vertex 1.24698 1.56366 48
    endloop
  endfacet
  facet normal 0 0 1
    outer loop
      vertex 2 0 48
      vertex 1.06823 1.13148 48
      vertex 1.61313 0 48
    endloop
  endfacet
  facet normal 0 0 1
    outer loop
      vertex 1.24698 1.56366 48
      vertex 1.00577 1.26119 48
      vertex 1.06823 1.13148 48
    endloop
  endfacet
  facet normal 0 0 1
    outer loop
      vertex 1.24698 1.56366 48
      vertex -0.218592 1.54065 48
      vertex 1.00577 1.26119 48
    endloop
  endfacet
  facet normal 0 0 1
    outer loop
      vertex -0.445042 1.94986 48
      vertex -0.218592 1.54065 48
      vertex 1.24698 1.56366 48
    endloop
  endfacet
  facet normal 0 0 1
    outer loop
      vertex -0.218592 1.54065 48
      vertex -0.445042 1.94986 48
      vertex -0.358954 1.57268 48
    endloop
  endfacet
  facet normal 0 0 1
    outer loop
      vertex -0.445042 1.94986 48
      vertex -0.471515 1.48292 48
      vertex -0.358954 1.57268 48
    endloop
  endfacet
  facet normal 0 0 1
    outer loop
      vertex -1.80194 0.867767 48
      vertex -0.471515 1.48292 48
      vertex -0.445042 1.94986 48
    endloop
  endfacet
  facet normal 0 0 1
    outer loop
      vertex -1.45338 0.699909 48
      vertex -1.80194 0.867767 48
      vertex -1.45338 -0.699909 48
    endloop
  endfacet
  facet normal 0 0 1
    outer loop
      vertex -0.471515 1.48292 48
      vertex -1.80194 0.867767 48
      vertex -1.45338 0.699909 48
    endloop
  endfacet
  facet normal 0 0 1
    outer loop
      vertex 1.06823 -1.13148 48
      vertex 2 0 48
      vertex 1.61313 0 48
    endloop
  endfacet
  facet normal 0 0 1
    outer loop
      vertex 2 0 48
      vertex 1.06823 -1.13148 48
      vertex 1.24698 -1.56366 48
    endloop
  endfacet
  facet normal -0 0 1
    outer loop
      vertex 1.00577 -1.26119 48
      vertex 1.24698 -1.56366 48
      vertex 1.06823 -1.13148 48
    endloop
  endfacet
  facet normal -0 0 1
    outer loop
      vertex -0.218592 -1.54065 48
      vertex 1.24698 -1.56366 48
      vertex 1.00577 -1.26119 48
    endloop
  endfacet
  facet normal 0 0 1
    outer loop
      vertex -0.445042 -1.94986 48
      vertex -0.218592 -1.54065 48
      vertex -0.358954 -1.57268 48
    endloop
  endfacet
  facet normal 0 0 1
    outer loop
      vertex -0.218592 -1.54065 48
      vertex -0.445042 -1.94986 48
      vertex 1.24698 -1.56366 48
    endloop
  endfacet
  facet normal 0 0 1
    outer loop
      vertex -0.471515 -1.48292 48
      vertex -0.445042 -1.94986 48
      vertex -0.358954 -1.57268 48
    endloop
  endfacet
  facet normal -0 0 1
    outer loop
      vertex -1.80194 -0.867767 48
      vertex -0.471515 -1.48292 48
      vertex -1.45338 -0.699909 48
    endloop
  endfacet
  facet normal 0 0 1
    outer loop
      vertex -0.471515 -1.48292 48
      vertex -1.80194 -0.867767 48
      vertex -0.445042 -1.94986 48
    endloop
  endfacet
  facet normal 0 0 1
    outer loop
      vertex -1.80194 -0.867767 48
      vertex -1.45338 -0.699909 48
      vertex -1.80194 0.867767 48
    endloop
  endfacet
  facet normal -0.623491 0.781831 0
    outer loop
      vertex -0.445042 1.94986 -48
      vertex -1.80194 0.867767 48
      vertex -0.445042 1.94986 48
    endloop
  endfacet
  facet normal -0.623491 0.781831 0
    outer loop
      vertex -1.80194 0.867767 48
      vertex -0.445042 1.94986 -48
      vertex -1.80194 0.867767 -48
    endloop
  endfacet
  facet normal 0.900969 -0.433884 0
    outer loop
      vertex 1.24698 -1.56366 48
      vertex 2 0 -48
      vertex 2 0 48
    endloop
  endfacet
  facet normal 0.900969 -0.433884 0
    outer loop
      vertex 2 0 -48
      vertex 1.24698 -1.56366 48
      vertex 1.24698 -1.56366 -48
    endloop
  endfacet
  facet normal 0 0 -1
    outer loop
      vertex 1.06823 -1.13148 -48
      vertex 2 0 -48
      vertex 1.24698 -1.56366 -48
    endloop
  endfacet
  facet normal -0 0 -1
    outer loop
      vertex 2 0 -48
      vertex 1.06823 -1.13148 -48
      vertex 1.61313 0 -48
    endloop
  endfacet
  facet normal 0 0 -1
    outer loop
      vertex 1.24698 -1.56366 -48
      vertex 1.00577 -1.26119 -48
      vertex 1.06823 -1.13148 -48
    endloop
  endfacet
  facet normal 0 0 -1
    outer loop
      vertex 1.24698 -1.56366 -48
      vertex -0.218592 -1.54065 -48
      vertex 1.00577 -1.26119 -48
    endloop
  endfacet
  facet normal 0 0 -1
    outer loop
      vertex -0.445042 -1.94986 -48
      vertex -0.218592 -1.54065 -48
      vertex 1.24698 -1.56366 -48
    endloop
  endfacet
  facet normal 0 0 -1
    outer loop
      vertex -0.218592 -1.54065 -48
      vertex -0.445042 -1.94986 -48
      vertex -0.358954 -1.57268 -48
    endloop
  endfacet
  facet normal 0 0 -1
    outer loop
      vertex -0.445042 -1.94986 -48
      vertex -0.471515 -1.48292 -48
      vertex -0.358954 -1.57268 -48
    endloop
  endfacet
  facet normal 0 0 -1
    outer loop
      vertex -1.80194 -0.867767 -48
      vertex -0.471515 -1.48292 -48
      vertex -0.445042 -1.94986 -48
    endloop
  endfacet
  facet normal -0 0 -1
    outer loop
      vertex -1.45338 -0.699909 -48
      vertex -1.80194 -0.867767 -48
      vertex -1.45338 0.699909 -48
    endloop
  endfacet
  facet normal 0 0 -1
    outer loop
      vertex -0.471515 -1.48292 -48
      vertex -1.80194 -0.867767 -48
      vertex -1.45338 -0.699909 -48
    endloop
  endfacet
  facet normal 0 0 -1
    outer loop
      vertex 1.06823 1.13148 -48
      vertex 2 0 -48
      vertex 1.61313 0 -48
    endloop
  endfacet
  facet normal 0 0 -1
    outer loop
      vertex 2 0 -48
      vertex 1.06823 1.13148 -48
      vertex 1.24698 1.56366 -48
    endloop
  endfacet
  facet normal 0 0 -1
    outer loop
      vertex 1.00577 1.26119 -48
      vertex 1.24698 1.56366 -48
      vertex 1.06823 1.13148 -48
    endloop
  endfacet
  facet normal 0 0 -1
    outer loop
      vertex -0.218592 1.54065 -48
      vertex 1.24698 1.56366 -48
      vertex 1.00577 1.26119 -48
    endloop
  endfacet
  facet normal 0 0 -1
    outer loop
      vertex -0.445042 1.94986 -48
      vertex -0.218592 1.54065 -48
      vertex -0.358954 1.57268 -48
    endloop
  endfacet
  facet normal 0 0 -1
    outer loop
      vertex -0.218592 1.54065 -48
      vertex -0.445042 1.94986 -48
      vertex 1.24698 1.56366 -48
    endloop
  endfacet
  facet normal 0 0 -1
    outer loop
      vertex -0.471515 1.48292 -48
      vertex -0.445042 1.94986 -48
      vertex -0.358954 1.57268 -48
    endloop
  endfacet
  facet normal 0 0 -1
    outer loop
      vertex -1.80194 0.867767 -48
      vertex -0.471515 1.48292 -48
      vertex -1.45338 0.699909 -48
    endloop
  endfacet
  facet normal -0 0 -1
    outer loop
      vertex -0.471515 1.48292 -48
      vertex -1.80194 0.867767 -48
      vertex -0.445042 1.94986 -48
    endloop
  endfacet
  facet normal 0 0 -1
    outer loop
      vertex -1.80194 0.867767 -48
      vertex -1.45338 0.699909 -48
      vertex -1.80194 -0.867767 -48
    endloop
  endfacet
  facet normal 0.222525 -0.974927 0
    outer loop
      vertex -0.445042 -1.94986 -48
      vertex 1.24698 -1.56366 48
      vertex -0.445042 -1.94986 48
    endloop
  endfacet
  facet normal 0.222525 -0.974927 0
    outer loop
      vertex 1.24698 -1.56366 48
      vertex -0.445042 -1.94986 -48
      vertex 1.24698 -1.56366 -48
    endloop
  endfacet
  facet normal -0.623491 -0.781831 0
    outer loop
      vertex -1.80194 -0.867767 -48
      vertex -0.445042 -1.94986 48
      vertex -1.80194 -0.867767 48
    endloop
  endfacet
  facet normal -0.623491 -0.781831 -0
    outer loop
      vertex -0.445042 -1.94986 48
      vertex -1.80194 -0.867767 -48
      vertex -0.445042 -1.94986 -48
    endloop
  endfacet
  facet normal 0.165319 -0.724312 0.669359
    outer loop
      vertex -0.17031 -0.746177 50.8478
      vertex -0.411164 -1.80143 49.7654
      vertex 0.477198 -0.598388 50.8478
    endloop
  endfacet
  facet normal 0.165317 0.724311 0.669361
    outer loop
      vertex 1.15206 1.44464 49.7654
      vertex -0.411164 1.80143 49.7654
      vertex 0.477198 0.598388 50.8478
    endloop
  endfacet
  facet normal 0.669363 0.322349 0.669361
    outer loop
      vertex 1.15206 1.44464 49.7654
      vertex 0.477198 0.598388 50.8478
      vertex 0.765367 0 50.8478
    endloop
  endfacet
  facet normal 0.16531 0.724252 -0.669426
    outer loop
      vertex -0.218592 1.54065 48
      vertex 1.15206 1.44464 48.2346
      vertex 1.00577 1.26119 48
    endloop
  endfacet
  facet normal 0.165308 0.724273 -0.669404
    outer loop
      vertex 1.15206 1.44464 48.2346
      vertex -0.218592 1.54065 48
      vertex -0.411164 1.80143 48.2346
    endloop
  endfacet
  facet normal 0.222518 -0.974929 0
    outer loop
      vertex -0.411164 -1.80143 48.2346
      vertex 1.15206 -1.44464 49.7654
      vertex -0.411164 -1.80143 49.7654
    endloop
  endfacet
  facet normal 0.222518 -0.974929 0
    outer loop
      vertex 1.15206 -1.44464 49.7654
      vertex -0.411164 -1.80143 48.2346
      vertex 1.15206 -1.44464 48.2346
    endloop
  endfacet
  facet normal 0.669364 0.322348 0.66936
    outer loop
      vertex 1.15206 1.44464 49.7654
      vertex 0.765367 0 50.8478
      vertex 1.84776 0 49.7654
    endloop
  endfacet
  facet normal -0.62349 0.781831 0
    outer loop
      vertex -0.411164 1.80143 48.2346
      vertex -1.66477 0.801712 49.7654
      vertex -0.411164 1.80143 49.7654
    endloop
  endfacet
  facet normal -0.62349 0.781831 0
    outer loop
      vertex -1.66477 0.801712 49.7654
      vertex -0.411164 1.80143 48.2346
      vertex -1.66477 0.801712 48.2346
    endloop
  endfacet
  facet normal 0.669332 -0.322308 -0.669412
    outer loop
      vertex 1.15206 -1.44464 48.2346
      vertex 1.00577 -1.26119 48
      vertex 1.06823 -1.13148 48
    endloop
  endfacet
  facet normal 0.669364 -0.322348 0.66936
    outer loop
      vertex 1.84776 0 49.7654
      vertex 0.765367 0 50.8478
      vertex 1.15206 -1.44464 49.7654
    endloop
  endfacet
  facet normal 0.165319 0.724312 0.669359
    outer loop
      vertex 0.477198 0.598388 50.8478
      vertex -0.411164 1.80143 49.7654
      vertex -0.17031 0.746177 50.8478
    endloop
  endfacet
  facet normal -1 0 0
    outer loop
      vertex -1.66477 -0.801712 48.2346
      vertex -1.66477 0.801712 49.7654
      vertex -1.66477 0.801712 48.2346
    endloop
  endfacet
  facet normal -1 -0 0
    outer loop
      vertex -1.66477 0.801712 49.7654
      vertex -1.66477 -0.801712 48.2346
      vertex -1.66477 -0.801712 49.7654
    endloop
  endfacet
  facet normal 0.165317 -0.724311 0.669361
    outer loop
      vertex 0.477198 -0.598388 50.8478
      vertex -0.411164 -1.80143 49.7654
      vertex 1.15206 -1.44464 49.7654
    endloop
  endfacet
  facet normal 0.669363 -0.322349 0.669361
    outer loop
      vertex 0.765367 0 50.8478
      vertex 0.477198 -0.598388 50.8478
      vertex 1.15206 -1.44464 49.7654
    endloop
  endfacet
  facet normal 0.669323 -0.322334 -0.669409
    outer loop
      vertex 1.84776 0 48.2346
      vertex 1.06823 -1.13148 48
      vertex 1.61313 0 48
    endloop
  endfacet
  facet normal 0.669312 -0.322323 -0.669425
    outer loop
      vertex 1.06823 -1.13148 48
      vertex 1.84776 0 48.2346
      vertex 1.15206 -1.44464 48.2346
    endloop
  endfacet
  facet normal 0.900969 -0.433883 0
    outer loop
      vertex 1.15206 -1.44464 49.7654
      vertex 1.84776 0 48.2346
      vertex 1.84776 0 49.7654
    endloop
  endfacet
  facet normal 0.900969 -0.433883 0
    outer loop
      vertex 1.84776 0 48.2346
      vertex 1.15206 -1.44464 49.7654
      vertex 1.15206 -1.44464 48.2346
    endloop
  endfacet
  facet normal 0.222518 0.974929 -0
    outer loop
      vertex 1.15206 1.44464 48.2346
      vertex -0.411164 1.80143 49.7654
      vertex 1.15206 1.44464 49.7654
    endloop
  endfacet
  facet normal 0.222518 0.974929 0
    outer loop
      vertex -0.411164 1.80143 49.7654
      vertex 1.15206 1.44464 48.2346
      vertex -0.411164 1.80143 48.2346
    endloop
  endfacet
  facet normal 0.900969 0.433883 0
    outer loop
      vertex 1.84776 0 49.7654
      vertex 1.15206 1.44464 48.2346
      vertex 1.15206 1.44464 49.7654
    endloop
  endfacet
  facet normal 0.900969 0.433883 0
    outer loop
      vertex 1.15206 1.44464 48.2346
      vertex 1.84776 0 49.7654
      vertex 1.84776 0 48.2346
    endloop
  endfacet
  facet normal 0 0 1
    outer loop
      vertex 0.477198 0.598388 50.8478
      vertex 0.477198 -0.598388 50.8478
      vertex 0.765367 0 50.8478
    endloop
  endfacet
  facet normal 0 0 1
    outer loop
      vertex -0.17031 0.746177 50.8478
      vertex 0.477198 -0.598388 50.8478
      vertex 0.477198 0.598388 50.8478
    endloop
  endfacet
  facet normal 0 0 1
    outer loop
      vertex -0.17031 0.746177 50.8478
      vertex -0.17031 -0.746177 50.8478
      vertex 0.477198 -0.598388 50.8478
    endloop
  endfacet
  facet normal -0 0 1
    outer loop
      vertex -0.689571 0.33208 50.8478
      vertex -0.17031 -0.746177 50.8478
      vertex -0.17031 0.746177 50.8478
    endloop
  endfacet
  facet normal 0 0 1
    outer loop
      vertex -0.17031 -0.746177 50.8478
      vertex -0.689571 0.33208 50.8478
      vertex -0.689571 -0.33208 50.8478
    endloop
  endfacet
  facet normal -0.62349 -0.781831 0
    outer loop
      vertex -1.66477 -0.801712 48.2346
      vertex -0.411164 -1.80143 49.7654
      vertex -1.66477 -0.801712 49.7654
    endloop
  endfacet
  facet normal -0.62349 -0.781831 -0
    outer loop
      vertex -0.411164 -1.80143 49.7654
      vertex -1.66477 -0.801712 48.2346
      vertex -0.411164 -1.80143 48.2346
    endloop
  endfacet
  facet normal -0.463215 -0.580853 0.669359
    outer loop
      vertex -0.17031 -0.746177 50.8478
      vertex -0.689571 -0.33208 50.8478
      vertex -0.411164 -1.80143 49.7654
    endloop
  endfacet
  facet normal -0.7429 0 -0.669402
    outer loop
      vertex -1.45338 -0.699909 48
      vertex -1.66477 0.801712 48.2346
      vertex -1.45338 0.699909 48
    endloop
  endfacet
  facet normal -0.7429 -0 -0.669402
    outer loop
      vertex -1.66477 0.801712 48.2346
      vertex -1.45338 -0.699909 48
      vertex -1.66477 -0.801712 48.2346
    endloop
  endfacet
  facet normal -0.463188 0.58082 -0.669406
    outer loop
      vertex -1.66477 0.801712 48.2346
      vertex -0.471515 1.48292 48
      vertex -1.45338 0.699909 48
    endloop
  endfacet
  facet normal -0.463188 0.580819 -0.669407
    outer loop
      vertex -0.471515 1.48292 48
      vertex -1.66477 0.801712 48.2346
      vertex -0.411164 1.80143 48.2346
    endloop
  endfacet
  facet normal 0.669312 0.322323 -0.669425
    outer loop
      vertex 1.84776 0 48.2346
      vertex 1.06823 1.13148 48
      vertex 1.15206 1.44464 48.2346
    endloop
  endfacet
  facet normal 0.669323 0.322334 -0.669409
    outer loop
      vertex 1.06823 1.13148 48
      vertex 1.84776 0 48.2346
      vertex 1.61313 0 48
    endloop
  endfacet
  facet normal 0.669332 0.322308 -0.669412
    outer loop
      vertex 1.06823 1.13148 48
      vertex 1.00577 1.26119 48
      vertex 1.15206 1.44464 48.2346
    endloop
  endfacet
  facet normal -0.463215 0.580853 0.669359
    outer loop
      vertex -0.411164 1.80143 49.7654
      vertex -0.689571 0.33208 50.8478
      vertex -0.17031 0.746177 50.8478
    endloop
  endfacet
  facet normal -0.463215 0.580853 0.669359
    outer loop
      vertex -0.411164 1.80143 49.7654
      vertex -1.66477 0.801712 49.7654
      vertex -0.689571 0.33208 50.8478
    endloop
  endfacet
  facet normal -0.463215 -0.580853 0.669359
    outer loop
      vertex -0.689571 -0.33208 50.8478
      vertex -1.66477 -0.801712 49.7654
      vertex -0.411164 -1.80143 49.7654
    endloop
  endfacet
  facet normal -0.742939 0 0.669359
    outer loop
      vertex -1.66477 0.801712 49.7654
      vertex -0.689571 -0.33208 50.8478
      vertex -0.689571 0.33208 50.8478
    endloop
  endfacet
  facet normal -0.742939 0 0.669359
    outer loop
      vertex -0.689571 -0.33208 50.8478
      vertex -1.66477 0.801712 49.7654
      vertex -1.66477 -0.801712 49.7654
    endloop
  endfacet
  facet normal 0.165308 -0.724273 -0.669404
    outer loop
      vertex -0.218592 -1.54065 48
      vertex 1.15206 -1.44464 48.2346
      vertex -0.411164 -1.80143 48.2346
    endloop
  endfacet
  facet normal 0.16531 -0.724252 -0.669426
    outer loop
      vertex 1.15206 -1.44464 48.2346
      vertex -0.218592 -1.54065 48
      vertex 1.00577 -1.26119 48
    endloop
  endfacet
  facet normal 0.165274 0.724264 -0.669422
    outer loop
      vertex -0.358954 1.57268 48
      vertex -0.411164 1.80143 48.2346
      vertex -0.218592 1.54065 48
    endloop
  endfacet
  facet normal 0.165274 -0.724264 -0.669422
    outer loop
      vertex -0.218592 -1.54065 48
      vertex -0.411164 -1.80143 48.2346
      vertex -0.358954 -1.57268 48
    endloop
  endfacet
  facet normal -0.463188 -0.580819 -0.669407
    outer loop
      vertex -1.66477 -0.801712 48.2346
      vertex -0.471515 -1.48292 48
      vertex -0.411164 -1.80143 48.2346
    endloop
  endfacet
  facet normal -0.463188 -0.58082 -0.669406
    outer loop
      vertex -0.471515 -1.48292 48
      vertex -1.66477 -0.801712 48.2346
      vertex -1.45338 -0.699909 48
    endloop
  endfacet
  facet normal -0.463168 0.580823 -0.669417
    outer loop
      vertex -0.358954 1.57268 48
      vertex -0.471515 1.48292 48
      vertex -0.411164 1.80143 48.2346
    endloop
  endfacet
  facet normal -0.463168 -0.580823 -0.669417
    outer loop
      vertex -0.411164 -1.80143 48.2346
      vertex -0.471515 -1.48292 48
      vertex -0.358954 -1.57268 48
    endloop
  endfacet
  facet normal 0.165274 -0.724264 0.669422
    outer loop
      vertex -0.358954 -1.57268 -48
      vertex -0.411164 -1.80143 -48.2346
      vertex -0.218592 -1.54065 -48
    endloop
  endfacet
  facet normal 0.16531 0.724252 0.669426
    outer loop
      vertex 1.15206 1.44464 -48.2346
      vertex -0.218592 1.54065 -48
      vertex 1.00577 1.26119 -48
    endloop
  endfacet
  facet normal 0.165308 0.724273 0.669404
    outer loop
      vertex -0.218592 1.54065 -48
      vertex 1.15206 1.44464 -48.2346
      vertex -0.411164 1.80143 -48.2346
    endloop
  endfacet
  facet normal 0.669332 0.322308 0.669412
    outer loop
      vertex 1.15206 1.44464 -48.2346
      vertex 1.00577 1.26119 -48
      vertex 1.06823 1.13148 -48
    endloop
  endfacet
  facet normal 0.165317 0.724311 -0.669361
    outer loop
      vertex 0.477198 0.598388 -50.8478
      vertex -0.411164 1.80143 -49.7654
      vertex 1.15206 1.44464 -49.7654
    endloop
  endfacet
  facet normal 0.222518 -0.974929 0
    outer loop
      vertex -0.411164 -1.80143 -49.7654
      vertex 1.15206 -1.44464 -48.2346
      vertex -0.411164 -1.80143 -48.2346
    endloop
  endfacet
  facet normal 0.222518 -0.974929 0
    outer loop
      vertex 1.15206 -1.44464 -48.2346
      vertex -0.411164 -1.80143 -49.7654
      vertex 1.15206 -1.44464 -49.7654
    endloop
  endfacet
  facet normal 0.669323 0.322334 0.669409
    outer loop
      vertex 1.84776 0 -48.2346
      vertex 1.06823 1.13148 -48
      vertex 1.61313 0 -48
    endloop
  endfacet
  facet normal 0.669312 0.322323 0.669425
    outer loop
      vertex 1.06823 1.13148 -48
      vertex 1.84776 0 -48.2346
      vertex 1.15206 1.44464 -48.2346
    endloop
  endfacet
  facet normal -0.62349 0.781831 0
    outer loop
      vertex -0.411164 1.80143 -49.7654
      vertex -1.66477 0.801712 -48.2346
      vertex -0.411164 1.80143 -48.2346
    endloop
  endfacet
  facet normal -0.62349 0.781831 0
    outer loop
      vertex -1.66477 0.801712 -48.2346
      vertex -0.411164 1.80143 -49.7654
      vertex -1.66477 0.801712 -49.7654
    endloop
  endfacet
  facet normal 0.669363 -0.322349 -0.669361
    outer loop
      vertex 1.15206 -1.44464 -49.7654
      vertex 0.477198 -0.598388 -50.8478
      vertex 0.765367 0 -50.8478
    endloop
  endfacet
  facet normal 0.669323 -0.322334 0.669409
    outer loop
      vertex 1.06823 -1.13148 -48
      vertex 1.84776 0 -48.2346
      vertex 1.61313 0 -48
    endloop
  endfacet
  facet normal 0.669312 -0.322323 0.669425
    outer loop
      vertex 1.84776 0 -48.2346
      vertex 1.06823 -1.13148 -48
      vertex 1.15206 -1.44464 -48.2346
    endloop
  endfacet
  facet normal 0.165274 0.724264 0.669422
    outer loop
      vertex -0.218592 1.54065 -48
      vertex -0.411164 1.80143 -48.2346
      vertex -0.358954 1.57268 -48
    endloop
  endfacet
  facet normal -1 0 0
    outer loop
      vertex -1.66477 -0.801712 -49.7654
      vertex -1.66477 0.801712 -48.2346
      vertex -1.66477 0.801712 -49.7654
    endloop
  endfacet
  facet normal -1 -0 0
    outer loop
      vertex -1.66477 0.801712 -48.2346
      vertex -1.66477 -0.801712 -49.7654
      vertex -1.66477 -0.801712 -48.2346
    endloop
  endfacet
  facet normal 0.165308 -0.724273 0.669404
    outer loop
      vertex 1.15206 -1.44464 -48.2346
      vertex -0.218592 -1.54065 -48
      vertex -0.411164 -1.80143 -48.2346
    endloop
  endfacet
  facet normal 0.16531 -0.724252 0.669426
    outer loop
      vertex -0.218592 -1.54065 -48
      vertex 1.15206 -1.44464 -48.2346
      vertex 1.00577 -1.26119 -48
    endloop
  endfacet
  facet normal 0.669332 -0.322308 0.669412
    outer loop
      vertex 1.06823 -1.13148 -48
      vertex 1.00577 -1.26119 -48
      vertex 1.15206 -1.44464 -48.2346
    endloop
  endfacet
  facet normal 0.669364 -0.322348 -0.66936
    outer loop
      vertex 1.15206 -1.44464 -49.7654
      vertex 0.765367 0 -50.8478
      vertex 1.84776 0 -49.7654
    endloop
  endfacet
  facet normal 0.900969 -0.433883 0
    outer loop
      vertex 1.15206 -1.44464 -48.2346
      vertex 1.84776 0 -49.7654
      vertex 1.84776 0 -48.2346
    endloop
  endfacet
  facet normal 0.900969 -0.433883 0
    outer loop
      vertex 1.84776 0 -49.7654
      vertex 1.15206 -1.44464 -48.2346
      vertex 1.15206 -1.44464 -49.7654
    endloop
  endfacet
  facet normal 0.222518 0.974929 -0
    outer loop
      vertex 1.15206 1.44464 -49.7654
      vertex -0.411164 1.80143 -48.2346
      vertex 1.15206 1.44464 -48.2346
    endloop
  endfacet
  facet normal 0.222518 0.974929 0
    outer loop
      vertex -0.411164 1.80143 -48.2346
      vertex 1.15206 1.44464 -49.7654
      vertex -0.411164 1.80143 -49.7654
    endloop
  endfacet
  facet normal 0.900969 0.433883 0
    outer loop
      vertex 1.84776 0 -48.2346
      vertex 1.15206 1.44464 -49.7654
      vertex 1.15206 1.44464 -48.2346
    endloop
  endfacet
  facet normal 0.900969 0.433883 0
    outer loop
      vertex 1.15206 1.44464 -49.7654
      vertex 1.84776 0 -48.2346
      vertex 1.84776 0 -49.7654
    endloop
  endfacet
  facet normal -0.62349 -0.781831 0
    outer loop
      vertex -1.66477 -0.801712 -49.7654
      vertex -0.411164 -1.80143 -48.2346
      vertex -1.66477 -0.801712 -48.2346
    endloop
  endfacet
  facet normal -0.62349 -0.781831 -0
    outer loop
      vertex -0.411164 -1.80143 -48.2346
      vertex -1.66477 -0.801712 -49.7654
      vertex -0.411164 -1.80143 -49.7654
    endloop
  endfacet
  facet normal -0.463168 -0.580823 0.669417
    outer loop
      vertex -0.358954 -1.57268 -48
      vertex -0.471515 -1.48292 -48
      vertex -0.411164 -1.80143 -48.2346
    endloop
  endfacet
  facet normal -0.742939 0 -0.669359
    outer loop
      vertex -0.689571 -0.33208 -50.8478
      vertex -1.66477 0.801712 -49.7654
      vertex -0.689571 0.33208 -50.8478
    endloop
  endfacet
  facet normal -0.742939 -0 -0.669359
    outer loop
      vertex -1.66477 0.801712 -49.7654
      vertex -0.689571 -0.33208 -50.8478
      vertex -1.66477 -0.801712 -49.7654
    endloop
  endfacet
  facet normal -0.463215 0.580853 -0.669359
    outer loop
      vertex -0.689571 0.33208 -50.8478
      vertex -1.66477 0.801712 -49.7654
      vertex -0.411164 1.80143 -49.7654
    endloop
  endfacet
  facet normal 0.669364 0.322348 -0.66936
    outer loop
      vertex 1.84776 0 -49.7654
      vertex 0.765367 0 -50.8478
      vertex 1.15206 1.44464 -49.7654
    endloop
  endfacet
  facet normal 0.669363 0.322349 -0.669361
    outer loop
      vertex 0.765367 0 -50.8478
      vertex 0.477198 0.598388 -50.8478
      vertex 1.15206 1.44464 -49.7654
    endloop
  endfacet
  facet normal -0.463168 0.580823 0.669417
    outer loop
      vertex -0.411164 1.80143 -48.2346
      vertex -0.471515 1.48292 -48
      vertex -0.358954 1.57268 -48
    endloop
  endfacet
  facet normal -0.463188 0.580819 0.669407
    outer loop
      vertex -1.66477 0.801712 -48.2346
      vertex -0.471515 1.48292 -48
      vertex -0.411164 1.80143 -48.2346
    endloop
  endfacet
  facet normal -0.463188 0.58082 0.669406
    outer loop
      vertex -0.471515 1.48292 -48
      vertex -1.66477 0.801712 -48.2346
      vertex -1.45338 0.699909 -48
    endloop
  endfacet
  facet normal -0.463188 -0.58082 0.669406
    outer loop
      vertex -1.66477 -0.801712 -48.2346
      vertex -0.471515 -1.48292 -48
      vertex -1.45338 -0.699909 -48
    endloop
  endfacet
  facet normal -0.463188 -0.580819 0.669407
    outer loop
      vertex -0.471515 -1.48292 -48
      vertex -1.66477 -0.801712 -48.2346
      vertex -0.411164 -1.80143 -48.2346
    endloop
  endfacet
  facet normal -0.7429 0 0.669402
    outer loop
      vertex -1.66477 0.801712 -48.2346
      vertex -1.45338 -0.699909 -48
      vertex -1.45338 0.699909 -48
    endloop
  endfacet
  facet normal -0.7429 0 0.669402
    outer loop
      vertex -1.45338 -0.699909 -48
      vertex -1.66477 0.801712 -48.2346
      vertex -1.66477 -0.801712 -48.2346
    endloop
  endfacet
  facet normal 0.165317 -0.724311 -0.669361
    outer loop
      vertex 1.15206 -1.44464 -49.7654
      vertex -0.411164 -1.80143 -49.7654
      vertex 0.477198 -0.598388 -50.8478
    endloop
  endfacet
  facet normal 0 0 -1
    outer loop
      vertex 0.477198 -0.598388 -50.8478
      vertex 0.477198 0.598388 -50.8478
      vertex 0.765367 0 -50.8478
    endloop
  endfacet
  facet normal 0 0 -1
    outer loop
      vertex -0.17031 -0.746177 -50.8478
      vertex 0.477198 0.598388 -50.8478
      vertex 0.477198 -0.598388 -50.8478
    endloop
  endfacet
  facet normal 0 0 -1
    outer loop
      vertex -0.17031 -0.746177 -50.8478
      vertex -0.17031 0.746177 -50.8478
      vertex 0.477198 0.598388 -50.8478
    endloop
  endfacet
  facet normal 0 0 -1
    outer loop
      vertex -0.689571 -0.33208 -50.8478
      vertex -0.17031 0.746177 -50.8478
      vertex -0.17031 -0.746177 -50.8478
    endloop
  endfacet
  facet normal 0 0 -1
    outer loop
      vertex -0.17031 0.746177 -50.8478
      vertex -0.689571 -0.33208 -50.8478
      vertex -0.689571 0.33208 -50.8478
    endloop
  endfacet
  facet normal 0.165319 0.724312 -0.669359
    outer loop
      vertex -0.17031 0.746177 -50.8478
      vertex -0.411164 1.80143 -49.7654
      vertex 0.477198 0.598388 -50.8478
    endloop
  endfacet
  facet normal 0.165319 -0.724312 -0.669359
    outer loop
      vertex 0.477198 -0.598388 -50.8478
      vertex -0.411164 -1.80143 -49.7654
      vertex -0.17031 -0.746177 -50.8478
    endloop
  endfacet
  facet normal -0.463215 -0.580853 -0.669359
    outer loop
      vertex -0.411164 -1.80143 -49.7654
      vertex -1.66477 -0.801712 -49.7654
      vertex -0.689571 -0.33208 -50.8478
    endloop
  endfacet
  facet normal -0.463215 0.580853 -0.669359
    outer loop
      vertex -0.17031 0.746177 -50.8478
      vertex -0.689571 0.33208 -50.8478
      vertex -0.411164 1.80143 -49.7654
    endloop
  endfacet
  facet normal -0.463215 -0.580853 -0.669359
    outer loop
      vertex -0.411164 -1.80143 -49.7654
      vertex -0.689571 -0.33208 -50.8478
      vertex -0.17031 -0.746177 -50.8478
    endloop
  endfacet
  facet normal 0.900973 0.433875 0
    outer loop
      vertex 2 20 48
      vertex 1.24698 21.5637 -48
      vertex 1.24698 21.5637 48
    endloop
  endfacet
  facet normal 0.900973 0.433875 0
    outer loop
      vertex 1.24698 21.5637 -48
      vertex 2 20 48
      vertex 2 20 -48
    endloop
  endfacet
  facet normal -1 0 0
    outer loop
      vertex -1.80194 19.1322 -48
      vertex -1.80194 20.8678 48
      vertex -1.80194 20.8678 -48
    endloop
  endfacet
  facet normal -1 -0 0
    outer loop
      vertex -1.80194 20.8678 48
      vertex -1.80194 19.1322 -48
      vertex -1.80194 19.1322 48
    endloop
  endfacet
  facet normal 0.222525 0.974927 -0
    outer loop
      vertex 1.24698 21.5637 -48
      vertex -0.445042 21.9499 48
      vertex 1.24698 21.5637 48
    endloop
  endfacet
  facet normal 0.222525 0.974927 0
    outer loop
      vertex -0.445042 21.9499 48
      vertex 1.24698 21.5637 -48
      vertex -0.445042 21.9499 -48
    endloop
  endfacet
  facet normal -0 0 1
    outer loop
      vertex 1.06823 21.1315 48
      vertex 2 20 48
      vertex 1.24698 21.5637 48
    endloop
  endfacet
  facet normal 0 0 1
    outer loop
      vertex 2 20 48
      vertex 1.06823 21.1315 48
      vertex 1.61313 20 48
    endloop
  endfacet
  facet normal 0 0 1
    outer loop
      vertex 1.24698 21.5637 48
      vertex 1.00577 21.2612 48
      vertex 1.06823 21.1315 48
    endloop
  endfacet
  facet normal 0 0 1
    outer loop
      vertex 1.24698 21.5637 48
      vertex -0.218592 21.5406 48
      vertex 1.00577 21.2612 48
    endloop
  endfacet
  facet normal 0 0 1
    outer loop
      vertex -0.445042 21.9499 48
      vertex -0.218592 21.5406 48
      vertex 1.24698 21.5637 48
    endloop
  endfacet
  facet normal 0 0 1
    outer loop
      vertex -0.218592 21.5406 48
      vertex -0.445042 21.9499 48
      vertex -0.358954 21.5727 48
    endloop
  endfacet
  facet normal 0 0 1
    outer loop
      vertex -0.445042 21.9499 48
      vertex -0.471515 21.4829 48
      vertex -0.358954 21.5727 48
    endloop
  endfacet
  facet normal 0 0 1
    outer loop
      vertex -1.80194 20.8678 48
      vertex -0.471515 21.4829 48
      vertex -0.445042 21.9499 48
    endloop
  endfacet
  facet normal 0 0 1
    outer loop
      vertex -1.45338 20.6999 48
      vertex -1.80194 20.8678 48
      vertex -1.45338 19.3001 48
    endloop
  endfacet
  facet normal 0 0 1
    outer loop
      vertex -0.471515 21.4829 48
      vertex -1.80194 20.8678 48
      vertex -1.45338 20.6999 48
    endloop
  endfacet
  facet normal 0 0 1
    outer loop
      vertex 1.06823 18.8685 48
      vertex 2 20 48
      vertex 1.61313 20 48
    endloop
  endfacet
  facet normal 0 0 1
    outer loop
      vertex 2 20 48
      vertex 1.06823 18.8685 48
      vertex 1.24698 18.4363 48
    endloop
  endfacet
  facet normal -0 0 1
    outer loop
      vertex 1.00577 18.7388 48
      vertex 1.24698 18.4363 48
      vertex 1.06823 18.8685 48
    endloop
  endfacet
  facet normal -0 0 1
    outer loop
      vertex -0.218592 18.4594 48
      vertex 1.24698 18.4363 48
      vertex 1.00577 18.7388 48
    endloop
  endfacet
  facet normal 0 0 1
    outer loop
      vertex -0.445042 18.0501 48
      vertex -0.218592 18.4594 48
      vertex -0.358954 18.4273 48
    endloop
  endfacet
  facet normal 0 0 1
    outer loop
      vertex -0.218592 18.4594 48
      vertex -0.445042 18.0501 48
      vertex 1.24698 18.4363 48
    endloop
  endfacet
  facet normal 0 0 1
    outer loop
      vertex -0.471515 18.5171 48
      vertex -0.445042 18.0501 48
      vertex -0.358954 18.4273 48
    endloop
  endfacet
  facet normal -0 0 1
    outer loop
      vertex -1.80194 19.1322 48
      vertex -0.471515 18.5171 48
      vertex -1.45338 19.3001 48
    endloop
  endfacet
  facet normal 0 0 1
    outer loop
      vertex -0.471515 18.5171 48
      vertex -1.80194 19.1322 48
      vertex -0.445042 18.0501 48
    endloop
  endfacet
  facet normal 0 0 1
    outer loop
      vertex -1.80194 19.1322 48
      vertex -1.45338 19.3001 48
      vertex -1.80194 20.8678 48
    endloop
  endfacet
  facet normal -0.623493 0.781829 0
    outer loop
      vertex -0.445042 21.9499 -48
      vertex -1.80194 20.8678 48
      vertex -0.445042 21.9499 48
    endloop
  endfacet
  facet normal -0.623493 0.781829 0
    outer loop
      vertex -1.80194 20.8678 48
      vertex -0.445042 21.9499 -48
      vertex -1.80194 20.8678 -48
    endloop
  endfacet
  facet normal 0.900973 -0.433875 0
    outer loop
      vertex 1.24698 18.4363 48
      vertex 2 20 -48
      vertex 2 20 48
    endloop
  endfacet
  facet normal 0.900973 -0.433875 0
    outer loop
      vertex 2 20 -48
      vertex 1.24698 18.4363 48
      vertex 1.24698 18.4363 -48
    endloop
  endfacet
  facet normal 0 0 -1
    outer loop
      vertex 1.06823 18.8685 -48
      vertex 2 20 -48
      vertex 1.24698 18.4363 -48
    endloop
  endfacet
  facet normal -0 0 -1
    outer loop
      vertex 2 20 -48
      vertex 1.06823 18.8685 -48
      vertex 1.61313 20 -48
    endloop
  endfacet
  facet normal 0 0 -1
    outer loop
      vertex 1.24698 18.4363 -48
      vertex 1.00577 18.7388 -48
      vertex 1.06823 18.8685 -48
    endloop
  endfacet
  facet normal 0 0 -1
    outer loop
      vertex 1.24698 18.4363 -48
      vertex -0.218592 18.4594 -48
      vertex 1.00577 18.7388 -48
    endloop
  endfacet
  facet normal 0 0 -1
    outer loop
      vertex -0.445042 18.0501 -48
      vertex -0.218592 18.4594 -48
      vertex 1.24698 18.4363 -48
    endloop
  endfacet
  facet normal 0 0 -1
    outer loop
      vertex -0.218592 18.4594 -48
      vertex -0.445042 18.0501 -48
      vertex -0.358954 18.4273 -48
    endloop
  endfacet
  facet normal 0 0 -1
    outer loop
      vertex -0.445042 18.0501 -48
      vertex -0.471515 18.5171 -48
      vertex -0.358954 18.4273 -48
    endloop
  endfacet
  facet normal 0 0 -1
    outer loop
      vertex -1.80194 19.1322 -48
      vertex -0.471515 18.5171 -48
      vertex -0.445042 18.0501 -48
    endloop
  endfacet
  facet normal -0 0 -1
    outer loop
      vertex -1.45338 19.3001 -48
      vertex -1.80194 19.1322 -48
      vertex -1.45338 20.6999 -48
    endloop
  endfacet
  facet normal 0 0 -1
    outer loop
      vertex -0.471515 18.5171 -48
      vertex -1.80194 19.1322 -48
      vertex -1.45338 19.3001 -48
    endloop
  endfacet
  facet normal 0 0 -1
    outer loop
      vertex 1.06823 21.1315 -48
      vertex 2 20 -48
      vertex 1.61313 20 -48
    endloop
  endfacet
  facet normal 0 0 -1
    outer loop
      vertex 2 20 -48
      vertex 1.06823 21.1315 -48
      vertex 1.24698 21.5637 -48
    endloop
  endfacet
  facet normal 0 0 -1
    outer loop
      vertex 1.00577 21.2612 -48
      vertex 1.24698 21.5637 -48
      vertex 1.06823 21.1315 -48
    endloop
  endfacet
  facet normal 0 0 -1
    outer loop
      vertex -0.218592 21.5406 -48
      vertex 1.24698 21.5637 -48
      vertex 1.00577 21.2612 -48
    endloop
  endfacet
  facet normal 0 0 -1
    outer loop
      vertex -0.445042 21.9499 -48
      vertex -0.218592 21.5406 -48
      vertex -0.358954 21.5727 -48
    endloop
  endfacet
  facet normal 0 0 -1
    outer loop
      vertex -0.218592 21.5406 -48
      vertex -0.445042 21.9499 -48
      vertex 1.24698 21.5637 -48
    endloop
  endfacet
  facet normal 0 0 -1
    outer loop
      vertex -0.471515 21.4829 -48
      vertex -0.445042 21.9499 -48
      vertex -0.358954 21.5727 -48
    endloop
  endfacet
  facet normal 0 0 -1
    outer loop
      vertex -1.80194 20.8678 -48
      vertex -0.471515 21.4829 -48
      vertex -1.45338 20.6999 -48
    endloop
  endfacet
  facet normal -0 0 -1
    outer loop
      vertex -0.471515 21.4829 -48
      vertex -1.80194 20.8678 -48
      vertex -0.445042 21.9499 -48
    endloop
  endfacet
  facet normal 0 0 -1
    outer loop
      vertex -1.80194 20.8678 -48
      vertex -1.45338 20.6999 -48
      vertex -1.80194 19.1322 -48
    endloop
  endfacet
  facet normal 0.222525 -0.974927 0
    outer loop
      vertex -0.445042 18.0501 -48
      vertex 1.24698 18.4363 48
      vertex -0.445042 18.0501 48
    endloop
  endfacet
  facet normal 0.222525 -0.974927 0
    outer loop
      vertex 1.24698 18.4363 48
      vertex -0.445042 18.0501 -48
      vertex 1.24698 18.4363 -48
    endloop
  endfacet
  facet normal -0.623493 -0.781829 0
    outer loop
      vertex -1.80194 19.1322 -48
      vertex -0.445042 18.0501 48
      vertex -1.80194 19.1322 48
    endloop
  endfacet
  facet normal -0.623493 -0.781829 -0
    outer loop
      vertex -0.445042 18.0501 48
      vertex -1.80194 19.1322 -48
      vertex -0.445042 18.0501 -48
    endloop
  endfacet
  facet normal 0.165335 -0.724329 0.669337
    outer loop
      vertex -0.17031 19.2538 50.8478
      vertex -0.411164 18.1986 49.7654
      vertex 0.477198 19.4016 50.8478
    endloop
  endfacet
  facet normal 0.165325 0.724326 0.669342
    outer loop
      vertex 1.15206 21.4446 49.7654
      vertex -0.411164 21.8014 49.7654
      vertex 0.477198 20.5984 50.8478
    endloop
  endfacet
  facet normal 0.669374 0.322348 0.669351
    outer loop
      vertex 1.15206 21.4446 49.7654
      vertex 0.477198 20.5984 50.8478
      vertex 0.765367 20 50.8478
    endloop
  endfacet
  facet normal 0.165295 0.724342 -0.669332
    outer loop
      vertex -0.218592 21.5406 48
      vertex 1.15206 21.4446 48.2346
      vertex 1.00577 21.2612 48
    endloop
  endfacet
  facet normal 0.165306 0.724244 -0.669436
    outer loop
      vertex 1.15206 21.4446 48.2346
      vertex -0.218592 21.5406 48
      vertex -0.411164 21.8014 48.2346
    endloop
  endfacet
  facet normal 0.222523 -0.974927 0
    outer loop
      vertex -0.411164 18.1986 48.2346
      vertex 1.15206 18.5554 49.7654
      vertex -0.411164 18.1986 49.7654
    endloop
  endfacet
  facet normal 0.222523 -0.974927 0
    outer loop
      vertex 1.15206 18.5554 49.7654
      vertex -0.411164 18.1986 48.2346
      vertex 1.15206 18.5554 48.2346
    endloop
  endfacet
  facet normal 0.669363 0.322356 0.669358
    outer loop
      vertex 1.15206 21.4446 49.7654
      vertex 0.765367 20 50.8478
      vertex 1.84776 20 49.7654
    endloop
  endfacet
  facet normal -0.623483 0.781837 0
    outer loop
      vertex -0.411164 21.8014 48.2346
      vertex -1.66477 20.8017 49.7654
      vertex -0.411164 21.8014 49.7654
    endloop
  endfacet
  facet normal -0.623483 0.781837 0
    outer loop
      vertex -1.66477 20.8017 49.7654
      vertex -0.411164 21.8014 48.2346
      vertex -1.66477 20.8017 48.2346
    endloop
  endfacet
  facet normal 0.669349 -0.32234 -0.669379
    outer loop
      vertex 1.15206 18.5554 48.2346
      vertex 1.00577 18.7388 48
      vertex 1.06823 18.8685 48
    endloop
  endfacet
  facet normal 0.669363 -0.322356 0.669358
    outer loop
      vertex 1.84776 20 49.7654
      vertex 0.765367 20 50.8478
      vertex 1.15206 18.5554 49.7654
    endloop
  endfacet
  facet normal 0.165335 0.724329 0.669337
    outer loop
      vertex 0.477198 20.5984 50.8478
      vertex -0.411164 21.8014 49.7654
      vertex -0.17031 20.7462 50.8478
    endloop
  endfacet
  facet normal -1 0 0
    outer loop
      vertex -1.66477 19.1983 48.2346
      vertex -1.66477 20.8017 49.7654
      vertex -1.66477 20.8017 48.2346
    endloop
  endfacet
  facet normal -1 -0 0
    outer loop
      vertex -1.66477 20.8017 49.7654
      vertex -1.66477 19.1983 48.2346
      vertex -1.66477 19.1983 49.7654
    endloop
  endfacet
  facet normal 0.165325 -0.724326 0.669342
    outer loop
      vertex 0.477198 19.4016 50.8478
      vertex -0.411164 18.1986 49.7654
      vertex 1.15206 18.5554 49.7654
    endloop
  endfacet
  facet normal 0.669374 -0.322348 0.669351
    outer loop
      vertex 0.765367 20 50.8478
      vertex 0.477198 19.4016 50.8478
      vertex 1.15206 18.5554 49.7654
    endloop
  endfacet
  facet normal 0.669324 -0.322329 -0.66941
    outer loop
      vertex 1.84776 20 48.2346
      vertex 1.06823 18.8685 48
      vertex 1.61313 20 48
    endloop
  endfacet
  facet normal 0.669342 -0.322346 -0.669384
    outer loop
      vertex 1.06823 18.8685 48
      vertex 1.84776 20 48.2346
      vertex 1.15206 18.5554 48.2346
    endloop
  endfacet
  facet normal 0.900965 -0.433893 0
    outer loop
      vertex 1.15206 18.5554 49.7654
      vertex 1.84776 20 48.2346
      vertex 1.84776 20 49.7654
    endloop
  endfacet
  facet normal 0.900965 -0.433893 0
    outer loop
      vertex 1.84776 20 48.2346
      vertex 1.15206 18.5554 49.7654
      vertex 1.15206 18.5554 48.2346
    endloop
  endfacet
  facet normal 0.222523 0.974927 -0
    outer loop
      vertex 1.15206 21.4446 48.2346
      vertex -0.411164 21.8014 49.7654
      vertex 1.15206 21.4446 49.7654
    endloop
  endfacet
  facet normal 0.222523 0.974927 0
    outer loop
      vertex -0.411164 21.8014 49.7654
      vertex 1.15206 21.4446 48.2346
      vertex -0.411164 21.8014 48.2346
    endloop
  endfacet
  facet normal 0.900965 0.433893 0
    outer loop
      vertex 1.84776 20 49.7654
      vertex 1.15206 21.4446 48.2346
      vertex 1.15206 21.4446 49.7654
    endloop
  endfacet
  facet normal 0.900965 0.433893 0
    outer loop
      vertex 1.15206 21.4446 48.2346
      vertex 1.84776 20 49.7654
      vertex 1.84776 20 48.2346
    endloop
  endfacet
  facet normal 0 0 1
    outer loop
      vertex 0.477198 20.5984 50.8478
      vertex 0.477198 19.4016 50.8478
      vertex 0.765367 20 50.8478
    endloop
  endfacet
  facet normal 0 0 1
    outer loop
      vertex -0.17031 20.7462 50.8478
      vertex 0.477198 19.4016 50.8478
      vertex 0.477198 20.5984 50.8478
    endloop
  endfacet
  facet normal 0 0 1
    outer loop
      vertex -0.17031 20.7462 50.8478
      vertex -0.17031 19.2538 50.8478
      vertex 0.477198 19.4016 50.8478
    endloop
  endfacet
  facet normal -0 0 1
    outer loop
      vertex -0.689571 20.3321 50.8478
      vertex -0.17031 19.2538 50.8478
      vertex -0.17031 20.7462 50.8478
    endloop
  endfacet
  facet normal 0 0 1
    outer loop
      vertex -0.17031 19.2538 50.8478
      vertex -0.689571 20.3321 50.8478
      vertex -0.689571 19.6679 50.8478
    endloop
  endfacet
  facet normal -0.623483 -0.781837 0
    outer loop
      vertex -1.66477 19.1983 48.2346
      vertex -0.411164 18.1986 49.7654
      vertex -1.66477 19.1983 49.7654
    endloop
  endfacet
  facet normal -0.623483 -0.781837 -0
    outer loop
      vertex -0.411164 18.1986 49.7654
      vertex -1.66477 19.1983 48.2346
      vertex -0.411164 18.1986 48.2346
    endloop
  endfacet
  facet normal -0.463226 -0.580863 0.669343
    outer loop
      vertex -0.17031 19.2538 50.8478
      vertex -0.689571 19.6679 50.8478
      vertex -0.411164 18.1986 49.7654
    endloop
  endfacet
  facet normal -0.7429 0 -0.669402
    outer loop
      vertex -1.45338 19.3001 48
      vertex -1.66477 20.8017 48.2346
      vertex -1.45338 20.6999 48
    endloop
  endfacet
  facet normal -0.7429 -0 -0.669402
    outer loop
      vertex -1.66477 20.8017 48.2346
      vertex -1.45338 19.3001 48
      vertex -1.66477 19.1983 48.2346
    endloop
  endfacet
  facet normal -0.463187 0.580827 -0.669401
    outer loop
      vertex -1.66477 20.8017 48.2346
      vertex -0.471515 21.4829 48
      vertex -1.45338 20.6999 48
    endloop
  endfacet
  facet normal -0.463189 0.58083 -0.669397
    outer loop
      vertex -0.471515 21.4829 48
      vertex -1.66477 20.8017 48.2346
      vertex -0.411164 21.8014 48.2346
    endloop
  endfacet
  facet normal 0.669342 0.322346 -0.669384
    outer loop
      vertex 1.84776 20 48.2346
      vertex 1.06823 21.1315 48
      vertex 1.15206 21.4446 48.2346
    endloop
  endfacet
  facet normal 0.669324 0.322329 -0.66941
    outer loop
      vertex 1.06823 21.1315 48
      vertex 1.84776 20 48.2346
      vertex 1.61313 20 48
    endloop
  endfacet
  facet normal 0.669349 0.32234 -0.669379
    outer loop
      vertex 1.06823 21.1315 48
      vertex 1.00577 21.2612 48
      vertex 1.15206 21.4446 48.2346
    endloop
  endfacet
  facet normal -0.463226 0.580863 0.669343
    outer loop
      vertex -0.411164 21.8014 49.7654
      vertex -0.689571 20.3321 50.8478
      vertex -0.17031 20.7462 50.8478
    endloop
  endfacet
  facet normal -0.463216 0.580865 0.669348
    outer loop
      vertex -0.411164 21.8014 49.7654
      vertex -1.66477 20.8017 49.7654
      vertex -0.689571 20.3321 50.8478
    endloop
  endfacet
  facet normal -0.463216 -0.580865 0.669348
    outer loop
      vertex -0.689571 19.6679 50.8478
      vertex -1.66477 19.1983 49.7654
      vertex -0.411164 18.1986 49.7654
    endloop
  endfacet
  facet normal -0.742939 0 0.669359
    outer loop
      vertex -1.66477 20.8017 49.7654
      vertex -0.689571 19.6679 50.8478
      vertex -0.689571 20.3321 50.8478
    endloop
  endfacet
  facet normal -0.742939 0 0.669359
    outer loop
      vertex -0.689571 19.6679 50.8478
      vertex -1.66477 20.8017 49.7654
      vertex -1.66477 19.1983 49.7654
    endloop
  endfacet
  facet normal 0.165306 -0.724244 -0.669436
    outer loop
      vertex -0.218592 18.4594 48
      vertex 1.15206 18.5554 48.2346
      vertex -0.411164 18.1986 48.2346
    endloop
  endfacet
  facet normal 0.165295 -0.724342 -0.669332
    outer loop
      vertex 1.15206 18.5554 48.2346
      vertex -0.218592 18.4594 48
      vertex 1.00577 18.7388 48
    endloop
  endfacet
  facet normal 0.165651 0.724335 -0.669253
    outer loop
      vertex -0.358954 21.5727 48
      vertex -0.411164 21.8014 48.2346
      vertex -0.218592 21.5406 48
    endloop
  endfacet
  facet normal 0.165651 -0.724335 -0.669253
    outer loop
      vertex -0.218592 18.4594 48
      vertex -0.411164 18.1986 48.2346
      vertex -0.358954 18.4273 48
    endloop
  endfacet
  facet normal -0.463189 -0.58083 -0.669397
    outer loop
      vertex -1.66477 19.1983 48.2346
      vertex -0.471515 18.5171 48
      vertex -0.411164 18.1986 48.2346
    endloop
  endfacet
  facet normal -0.463187 -0.580827 -0.669401
    outer loop
      vertex -0.471515 18.5171 48
      vertex -1.66477 19.1983 48.2346
      vertex -1.45338 19.3001 48
    endloop
  endfacet
  facet normal -0.463355 0.580798 -0.66931
    outer loop
      vertex -0.358954 21.5727 48
      vertex -0.471515 21.4829 48
      vertex -0.411164 21.8014 48.2346
    endloop
  endfacet
  facet normal -0.463355 -0.580798 -0.66931
    outer loop
      vertex -0.411164 18.1986 48.2346
      vertex -0.471515 18.5171 48
      vertex -0.358954 18.4273 48
    endloop
  endfacet
  facet normal 0.165651 -0.724335 0.669253
    outer loop
      vertex -0.358954 18.4273 -48
      vertex -0.411164 18.1986 -48.2346
      vertex -0.218592 18.4594 -48
    endloop
  endfacet
  facet normal 0.165295 0.724342 0.669332
    outer loop
      vertex 1.15206 21.4446 -48.2346
      vertex -0.218592 21.5406 -48
      vertex 1.00577 21.2612 -48
    endloop
  endfacet
  facet normal 0.165306 0.724244 0.669436
    outer loop
      vertex -0.218592 21.5406 -48
      vertex 1.15206 21.4446 -48.2346
      vertex -0.411164 21.8014 -48.2346
    endloop
  endfacet
  facet normal 0.669349 0.32234 0.669379
    outer loop
      vertex 1.15206 21.4446 -48.2346
      vertex 1.00577 21.2612 -48
      vertex 1.06823 21.1315 -48
    endloop
  endfacet
  facet normal 0.165325 0.724326 -0.669342
    outer loop
      vertex 0.477198 20.5984 -50.8478
      vertex -0.411164 21.8014 -49.7654
      vertex 1.15206 21.4446 -49.7654
    endloop
  endfacet
  facet normal 0.222523 -0.974927 0
    outer loop
      vertex -0.411164 18.1986 -49.7654
      vertex 1.15206 18.5554 -48.2346
      vertex -0.411164 18.1986 -48.2346
    endloop
  endfacet
  facet normal 0.222523 -0.974927 0
    outer loop
      vertex 1.15206 18.5554 -48.2346
      vertex -0.411164 18.1986 -49.7654
      vertex 1.15206 18.5554 -49.7654
    endloop
  endfacet
  facet normal 0.669324 0.322329 0.66941
    outer loop
      vertex 1.84776 20 -48.2346
      vertex 1.06823 21.1315 -48
      vertex 1.61313 20 -48
    endloop
  endfacet
  facet normal 0.669342 0.322346 0.669384
    outer loop
      vertex 1.06823 21.1315 -48
      vertex 1.84776 20 -48.2346
      vertex 1.15206 21.4446 -48.2346
    endloop
  endfacet
  facet normal -0.623483 0.781837 0
    outer loop
      vertex -0.411164 21.8014 -49.7654
      vertex -1.66477 20.8017 -48.2346
      vertex -0.411164 21.8014 -48.2346
    endloop
  endfacet
  facet normal -0.623483 0.781837 0
    outer loop
      vertex -1.66477 20.8017 -48.2346
      vertex -0.411164 21.8014 -49.7654
      vertex -1.66477 20.8017 -49.7654
    endloop
  endfacet
  facet normal 0.669374 -0.322348 -0.669351
    outer loop
      vertex 1.15206 18.5554 -49.7654
      vertex 0.477198 19.4016 -50.8478
      vertex 0.765367 20 -50.8478
    endloop
  endfacet
  facet normal 0.669324 -0.322329 0.66941
    outer loop
      vertex 1.06823 18.8685 -48
      vertex 1.84776 20 -48.2346
      vertex 1.61313 20 -48
    endloop
  endfacet
  facet normal 0.669342 -0.322346 0.669384
    outer loop
      vertex 1.84776 20 -48.2346
      vertex 1.06823 18.8685 -48
      vertex 1.15206 18.5554 -48.2346
    endloop
  endfacet
  facet normal 0.165651 0.724335 0.669253
    outer loop
      vertex -0.218592 21.5406 -48
      vertex -0.411164 21.8014 -48.2346
      vertex -0.358954 21.5727 -48
    endloop
  endfacet
  facet normal -1 0 0
    outer loop
      vertex -1.66477 19.1983 -49.7654
      vertex -1.66477 20.8017 -48.2346
      vertex -1.66477 20.8017 -49.7654
    endloop
  endfacet
  facet normal -1 -0 0
    outer loop
      vertex -1.66477 20.8017 -48.2346
      vertex -1.66477 19.1983 -49.7654
      vertex -1.66477 19.1983 -48.2346
    endloop
  endfacet
  facet normal 0.165306 -0.724244 0.669436
    outer loop
      vertex 1.15206 18.5554 -48.2346
      vertex -0.218592 18.4594 -48
      vertex -0.411164 18.1986 -48.2346
    endloop
  endfacet
  facet normal 0.165295 -0.724342 0.669332
    outer loop
      vertex -0.218592 18.4594 -48
      vertex 1.15206 18.5554 -48.2346
      vertex 1.00577 18.7388 -48
    endloop
  endfacet
  facet normal 0.669349 -0.32234 0.669379
    outer loop
      vertex 1.06823 18.8685 -48
      vertex 1.00577 18.7388 -48
      vertex 1.15206 18.5554 -48.2346
    endloop
  endfacet
  facet normal 0.669363 -0.322356 -0.669358
    outer loop
      vertex 1.15206 18.5554 -49.7654
      vertex 0.765367 20 -50.8478
      vertex 1.84776 20 -49.7654
    endloop
  endfacet
  facet normal 0.900965 -0.433893 0
    outer loop
      vertex 1.15206 18.5554 -48.2346
      vertex 1.84776 20 -49.7654
      vertex 1.84776 20 -48.2346
    endloop
  endfacet
  facet normal 0.900965 -0.433893 0
    outer loop
      vertex 1.84776 20 -49.7654
      vertex 1.15206 18.5554 -48.2346
      vertex 1.15206 18.5554 -49.7654
    endloop
  endfacet
  facet normal 0.222523 0.974927 -0
    outer loop
      vertex 1.15206 21.4446 -49.7654
      vertex -0.411164 21.8014 -48.2346
      vertex 1.15206 21.4446 -48.2346
    endloop
  endfacet
  facet normal 0.222523 0.974927 0
    outer loop
      vertex -0.411164 21.8014 -48.2346
      vertex 1.15206 21.4446 -49.7654
      vertex -0.411164 21.8014 -49.7654
    endloop
  endfacet
  facet normal 0.900965 0.433893 0
    outer loop
      vertex 1.84776 20 -48.2346
      vertex 1.15206 21.4446 -49.7654
      vertex 1.15206 21.4446 -48.2346
    endloop
  endfacet
  facet normal 0.900965 0.433893 0
    outer loop
      vertex 1.15206 21.4446 -49.7654
      vertex 1.84776 20 -48.2346
      vertex 1.84776 20 -49.7654
    endloop
  endfacet
  facet normal -0.623483 -0.781837 0
    outer loop
      vertex -1.66477 19.1983 -49.7654
      vertex -0.411164 18.1986 -48.2346
      vertex -1.66477 19.1983 -48.2346
    endloop
  endfacet
  facet normal -0.623483 -0.781837 -0
    outer loop
      vertex -0.411164 18.1986 -48.2346
      vertex -1.66477 19.1983 -49.7654
      vertex -0.411164 18.1986 -49.7654
    endloop
  endfacet
  facet normal -0.463355 -0.580798 0.66931
    outer loop
      vertex -0.358954 18.4273 -48
      vertex -0.471515 18.5171 -48
      vertex -0.411164 18.1986 -48.2346
    endloop
  endfacet
  facet normal -0.742939 0 -0.669359
    outer loop
      vertex -0.689571 19.6679 -50.8478
      vertex -1.66477 20.8017 -49.7654
      vertex -0.689571 20.3321 -50.8478
    endloop
  endfacet
  facet normal -0.742939 -0 -0.669359
    outer loop
      vertex -1.66477 20.8017 -49.7654
      vertex -0.689571 19.6679 -50.8478
      vertex -1.66477 19.1983 -49.7654
    endloop
  endfacet
  facet normal -0.463216 0.580865 -0.669348
    outer loop
      vertex -0.689571 20.3321 -50.8478
      vertex -1.66477 20.8017 -49.7654
      vertex -0.411164 21.8014 -49.7654
    endloop
  endfacet
  facet normal 0.669363 0.322356 -0.669358
    outer loop
      vertex 1.84776 20 -49.7654
      vertex 0.765367 20 -50.8478
      vertex 1.15206 21.4446 -49.7654
    endloop
  endfacet
  facet normal 0.669374 0.322348 -0.669351
    outer loop
      vertex 0.765367 20 -50.8478
      vertex 0.477198 20.5984 -50.8478
      vertex 1.15206 21.4446 -49.7654
    endloop
  endfacet
  facet normal -0.463355 0.580798 0.66931
    outer loop
      vertex -0.411164 21.8014 -48.2346
      vertex -0.471515 21.4829 -48
      vertex -0.358954 21.5727 -48
    endloop
  endfacet
  facet normal -0.463189 0.58083 0.669397
    outer loop
      vertex -1.66477 20.8017 -48.2346
      vertex -0.471515 21.4829 -48
      vertex -0.411164 21.8014 -48.2346
    endloop
  endfacet
  facet normal -0.463187 0.580827 0.669401
    outer loop
      vertex -0.471515 21.4829 -48
      vertex -1.66477 20.8017 -48.2346
      vertex -1.45338 20.6999 -48
    endloop
  endfacet
  facet normal -0.463187 -0.580827 0.669401
    outer loop
      vertex -1.66477 19.1983 -48.2346
      vertex -0.471515 18.5171 -48
      vertex -1.45338 19.3001 -48
    endloop
  endfacet
  facet normal -0.463189 -0.58083 0.669397
    outer loop
      vertex -0.471515 18.5171 -48
      vertex -1.66477 19.1983 -48.2346
      vertex -0.411164 18.1986 -48.2346
    endloop
  endfacet
  facet normal -0.7429 0 0.669402
    outer loop
      vertex -1.66477 20.8017 -48.2346
      vertex -1.45338 19.3001 -48
      vertex -1.45338 20.6999 -48
    endloop
  endfacet
  facet normal -0.7429 0 0.669402
    outer loop
      vertex -1.45338 19.3001 -48
      vertex -1.66477 20.8017 -48.2346
      vertex -1.66477 19.1983 -48.2346
    endloop
  endfacet
  facet normal 0.165325 -0.724326 -0.669342
    outer loop
      vertex 1.15206 18.5554 -49.7654
      vertex -0.411164 18.1986 -49.7654
      vertex 0.477198 19.4016 -50.8478
    endloop
  endfacet
  facet normal 0 0 -1
    outer loop
      vertex 0.477198 19.4016 -50.8478
      vertex 0.477198 20.5984 -50.8478
      vertex 0.765367 20 -50.8478
    endloop
  endfacet
  facet normal 0 0 -1
    outer loop
      vertex -0.17031 19.2538 -50.8478
      vertex 0.477198 20.5984 -50.8478
      vertex 0.477198 19.4016 -50.8478
    endloop
  endfacet
  facet normal 0 0 -1
    outer loop
      vertex -0.17031 19.2538 -50.8478
      vertex -0.17031 20.7462 -50.8478
      vertex 0.477198 20.5984 -50.8478
    endloop
  endfacet
  facet normal 0 0 -1
    outer loop
      vertex -0.689571 19.6679 -50.8478
      vertex -0.17031 20.7462 -50.8478
      vertex -0.17031 19.2538 -50.8478
    endloop
  endfacet
  facet normal 0 0 -1
    outer loop
      vertex -0.17031 20.7462 -50.8478
      vertex -0.689571 19.6679 -50.8478
      vertex -0.689571 20.3321 -50.8478
    endloop
  endfacet
  facet normal 0.165335 0.724329 -0.669337
    outer loop
      vertex -0.17031 20.7462 -50.8478
      vertex -0.411164 21.8014 -49.7654
      vertex 0.477198 20.5984 -50.8478
    endloop
  endfacet
  facet normal 0.165335 -0.724329 -0.669337
    outer loop
      vertex 0.477198 19.4016 -50.8478
      vertex -0.411164 18.1986 -49.7654
      vertex -0.17031 19.2538 -50.8478
    endloop
  endfacet
  facet normal -0.463216 -0.580865 -0.669348
    outer loop
      vertex -0.411164 18.1986 -49.7654
      vertex -1.66477 19.1983 -49.7654
      vertex -0.689571 19.6679 -50.8478
    endloop
  endfacet
  facet normal -0.463226 0.580863 -0.669343
    outer loop
      vertex -0.17031 20.7462 -50.8478
      vertex -0.689571 20.3321 -50.8478
      vertex -0.411164 21.8014 -49.7654
    endloop
  endfacet
  facet normal -0.463226 -0.580863 -0.669343
    outer loop
      vertex -0.411164 18.1986 -49.7654
      vertex -0.689571 19.6679 -50.8478
      vertex -0.17031 19.2538 -50.8478
    endloop
  endfacet
endsolid OpenSCAD_Model
